<svg width="199" height="63" viewBox="0 0 199 63" fill="none" xmlns="http://www.w3.org/2000/svg">
<path d="M18.0259 26.2468H25.6575C25.7497 26.2468 25.8382 26.21 25.9034 26.1446C25.9686 26.0791 26.0052 25.9904 26.0052 25.8978V16.5835C25.9997 16.4775 25.9698 16.3742 25.9178 16.2817C25.8659 16.1893 25.7933 16.1101 25.7058 16.0504L17.9776 11.2818C17.8134 11.1849 17.6782 11.2818 17.6782 11.4466V25.8978C17.6782 25.9904 17.7148 26.0791 17.78 26.1446C17.8452 26.21 17.9337 26.2468 18.0259 26.2468Z" fill="#F8AF00"/>
<path d="M28.8839 35.2413H35.8972C35.9894 35.2413 36.0779 35.2045 36.1431 35.1391C36.2083 35.0737 36.2449 34.9849 36.2449 34.8924V22.8158C36.254 22.6996 36.254 22.583 36.2449 22.4668L35.9358 22.2924L28.8356 18.0181C28.6713 17.9212 28.5361 18.0181 28.5361 18.1828V34.8924C28.5361 34.9849 28.5727 35.0737 28.638 35.1391C28.7032 35.2045 28.7916 35.2413 28.8839 35.2413Z" fill="#F8AF00"/>
<path d="M47.5957 30.5308C47.5041 30.2306 47.3673 29.9462 47.1899 29.6876C46.9977 29.3959 46.7706 29.129 46.5137 28.8928C46.3025 28.7047 46.0799 28.53 45.8472 28.3694L45.2579 27.9914L39.0754 24.2308C38.9111 24.1339 38.7759 24.2308 38.7759 24.4052V34.8923C38.7759 34.9849 38.8125 35.0736 38.8778 35.1391C38.943 35.2045 39.0314 35.2413 39.1237 35.2413H44.089C44.3156 35.228 44.5365 35.1651 44.7362 35.0571L45.2193 34.7663C45.3835 34.6694 45.6443 34.5046 45.8085 34.3883C46.1845 34.1257 46.5368 33.8306 46.8615 33.5063C47.394 32.9291 47.7025 32.1794 47.7309 31.3934C47.7294 31.1007 47.6838 30.8099 47.5957 30.5308Z" fill="#F8AF00"/>
<path d="M7.01343 26.2468H14.7995C14.8918 26.2468 14.9802 26.2101 15.0454 26.1447C15.1106 26.0792 15.1473 25.9905 15.1473 25.8979V9.89589C15.1403 9.79021 15.1098 9.68745 15.058 9.59518C15.0061 9.50292 14.9343 9.42351 14.8478 9.36281L12.2492 7.75389L11.9691 7.57942H11.9111L11.6696 7.44373L11.4378 7.31773C11.1065 7.15526 10.7604 7.02542 10.4041 6.93004L9.90182 6.78465C7.96979 6.54235 6.66566 7.87989 6.66566 10.3805V25.8882C6.66437 25.9349 6.67241 25.9813 6.68931 26.0247C6.7062 26.0682 6.73162 26.1078 6.76404 26.1413C6.79646 26.1747 6.83524 26.2013 6.87807 26.2194C6.92091 26.2375 6.96693 26.2469 7.01343 26.2468Z" fill="#F8AF00"/>
<path d="M16.2679 35.222H25.6479C25.7401 35.222 25.8286 35.1852 25.8938 35.1198C25.959 35.0543 25.9957 34.9656 25.9957 34.8731V31.8491C26.0446 31.4539 26.0078 31.0529 25.8877 30.6733C25.7677 30.2938 25.5674 29.9448 25.3004 29.6502C25.0334 29.3557 24.7061 29.1225 24.3409 28.9667C23.9757 28.8109 23.5812 28.7361 23.1846 28.7475H7.01341C6.92443 28.7474 6.83878 28.7815 6.77409 28.8428C6.7094 28.9041 6.67059 28.9879 6.66565 29.0771V51.728C6.64347 52.5163 6.82307 53.2971 7.1873 53.996L7.31288 54.2189C7.46996 54.4569 7.66591 54.6666 7.89249 54.8392C7.99896 54.9255 8.11201 55.0033 8.2306 55.0718C8.65413 55.2637 9.1135 55.3629 9.5782 55.3629C10.0429 55.3629 10.5022 55.2637 10.9258 55.0718L11.1963 54.9555C11.323 54.9072 11.4458 54.8489 11.5633 54.7811L11.6889 54.7229L12.2879 54.374L15.8718 52.3386C15.875 52.3128 15.875 52.2868 15.8718 52.261V35.5709C15.8713 35.5207 15.8816 35.471 15.902 35.4251C15.9225 35.3793 15.9525 35.3384 15.9901 35.3053C16.0277 35.2722 16.072 35.2476 16.1199 35.2332C16.1678 35.2188 16.2183 35.215 16.2679 35.222Z" fill="#F8AF00"/>
<path d="M19.2431 37.7129C19.1509 37.7129 19.0624 37.7496 18.9972 37.8151C18.932 37.8805 18.8953 37.9693 18.8953 38.0618V50.2353C18.8953 50.2353 18.8953 50.3613 18.9436 50.3904C18.9846 50.4025 19.0282 50.4025 19.0692 50.3904L39.7517 38.0327C39.9159 37.9358 39.8869 37.8583 39.7517 37.8583L19.2431 37.7129Z" fill="#F8AF00"/>
<path d="M115.826 54.1025H114.86V46.8623H115.826V54.1025Z" fill="#6F6F6E"/>
<path d="M117.053 47.5893C117.051 47.5019 117.068 47.4153 117.101 47.3345C117.134 47.2538 117.183 47.1808 117.246 47.12C117.308 47.0591 117.383 47.0118 117.464 46.9808C117.545 46.9498 117.632 46.9359 117.719 46.9399C117.849 46.9418 117.975 46.9823 118.082 47.0564C118.189 47.1304 118.272 47.2345 118.32 47.3557C118.368 47.4768 118.379 47.6095 118.352 47.737C118.324 47.8644 118.26 47.9809 118.167 48.0717C118.074 48.1625 117.956 48.2236 117.828 48.2471C117.7 48.2707 117.568 48.2557 117.449 48.204C117.33 48.1524 117.229 48.0664 117.158 47.957C117.087 47.8476 117.051 47.7196 117.053 47.5893ZM118.163 54.1025H117.246V48.9753H118.163V54.1025Z" fill="#6F6F6E"/>
<path d="M119.584 54.1024V48.9751H120.482V49.702C120.642 49.4198 120.878 49.189 121.164 49.0363C121.45 48.8836 121.773 48.8153 122.095 48.8394C122.632 48.8249 123.153 49.0234 123.544 49.3919C123.746 49.6036 123.902 49.8551 124.002 50.1304C124.101 50.4057 124.143 50.6988 124.124 50.9911V54.1024H123.216V51.2528C123.216 50.2836 122.684 49.6924 121.912 49.6924C121.72 49.6869 121.529 49.7229 121.352 49.7981C121.175 49.8734 121.017 49.9861 120.888 50.1285C120.622 50.4444 120.484 50.8492 120.501 51.2625V54.1024H119.584Z" fill="#6F6F6E"/>
<path d="M125.476 54.1025V46.8623H126.365V49.6052C126.554 49.3555 126.8 49.1554 127.083 49.022C127.365 48.8887 127.676 48.826 127.988 48.8395C128.258 48.8351 128.526 48.8852 128.777 48.9867C129.028 49.0883 129.255 49.2393 129.447 49.4308C129.648 49.6425 129.804 49.8939 129.904 50.1693C130.004 50.4446 130.045 50.7377 130.026 51.03V54.1412H129.118V51.2529C129.118 50.2837 128.597 49.6925 127.824 49.6925C127.626 49.6928 127.431 49.7346 127.251 49.8152C127.071 49.8958 126.91 50.0135 126.778 50.1605C126.646 50.3076 126.546 50.4808 126.485 50.669C126.424 50.8571 126.403 51.0561 126.423 51.2529V54.1025H125.476Z" fill="#6F6F6E"/>
<path d="M134.827 49.4307C135.052 49.63 135.228 49.8792 135.34 50.1584C135.453 50.4377 135.499 50.7394 135.475 51.0396V54.1411H134.615V53.453C134.416 53.7331 134.15 53.9576 133.84 54.1052C133.531 54.2528 133.189 54.3185 132.847 54.2962C132.338 54.3253 131.838 54.1511 131.456 53.8116C131.29 53.6599 131.158 53.4741 131.069 53.2667C130.981 53.0593 130.938 52.8352 130.944 52.6098C130.944 51.6405 131.707 51.0105 133.146 51.0105C133.631 51.0231 134.115 50.9972 134.595 50.933C134.528 50.1188 134.055 49.7215 133.175 49.7215C132.622 49.7237 132.08 49.8815 131.61 50.177L131.195 49.4985C131.784 49.0946 132.482 48.8815 133.195 48.8879C133.786 48.8679 134.365 49.0604 134.827 49.4307ZM134.093 52.9781C134.394 52.6255 134.567 52.1817 134.586 51.7181C134.267 51.7714 133.943 51.7941 133.62 51.7859C132.432 51.7859 131.92 51.9313 131.92 52.6098C131.92 53.1428 132.354 53.4627 132.963 53.4627C133.177 53.46 133.389 53.412 133.584 53.3219C133.778 53.2317 133.952 53.1013 134.093 52.9393V52.9781Z" fill="#6F6F6E"/>
<path d="M143.734 49.6343C143.98 49.8915 144.171 50.1956 144.297 50.5287C144.424 50.8617 144.482 51.2168 144.468 51.5728C144.479 51.9284 144.42 52.2828 144.294 52.6154C144.168 52.9481 143.977 53.2525 143.734 53.5112C143.502 53.7632 143.219 53.9627 142.904 54.0964C142.59 54.2301 142.25 54.295 141.908 54.2866C141.558 54.295 141.212 54.2203 140.896 54.0687C140.58 53.9171 140.305 53.6929 140.092 53.4143V56.322H139.126V48.9752H140.092V49.7506C140.304 49.4665 140.58 49.2367 140.897 49.08C141.214 48.9234 141.564 48.8443 141.918 48.8492C142.259 48.8416 142.598 48.9078 142.911 49.0432C143.225 49.1787 143.505 49.3803 143.734 49.6343ZM143.067 50.2255C142.907 50.0504 142.711 49.912 142.493 49.82C142.274 49.728 142.039 49.6845 141.802 49.6925C141.564 49.685 141.327 49.7287 141.107 49.8206C140.887 49.9126 140.689 50.0506 140.527 50.2255C140.215 50.5853 140.047 51.0477 140.053 51.5243C140.039 52.0108 140.208 52.4849 140.527 52.8521C140.689 53.0271 140.887 53.1651 141.107 53.2571C141.327 53.349 141.564 53.3927 141.802 53.3852C142.039 53.3932 142.274 53.3497 142.493 53.2577C142.711 53.1657 142.907 53.0273 143.067 52.8521C143.395 52.4899 143.569 52.0133 143.55 51.5243C143.565 51.0446 143.392 50.5783 143.067 50.2255Z" fill="#6F6F6E"/>
<path d="M145.569 54.1025V48.9752H146.439V49.7312C146.566 49.452 146.774 49.2177 147.036 49.0587C147.298 48.8997 147.602 48.8233 147.907 48.8395C148.109 48.8415 148.31 48.8675 148.506 48.9171L148.419 49.8088C148.248 49.7523 148.068 49.7229 147.888 49.7215C147.076 49.7215 146.487 50.2837 146.487 51.3886V54.1025H145.569Z" fill="#6F6F6E"/>
<path d="M149.482 53.4531C149.235 53.1959 149.041 52.8922 148.912 52.5595C148.783 52.2268 148.72 51.8717 148.728 51.5146C148.726 50.9782 148.883 50.4532 149.178 50.006C149.473 49.5588 149.894 49.2094 150.387 49.0019C150.88 48.7945 151.424 48.7383 151.949 48.8405C152.473 48.9428 152.956 49.1987 153.336 49.5762C153.588 49.8306 153.785 50.1336 153.916 50.4668C154.047 50.8 154.11 51.1565 154.099 51.5146C154.106 51.8723 154.042 52.2276 153.911 52.5603C153.78 52.893 153.585 53.1964 153.336 53.4531C152.817 53.9531 152.124 54.2322 151.404 54.2322C150.684 54.2322 149.992 53.9531 149.472 53.4531H149.482ZM152.67 50.2353C152.51 50.062 152.315 49.9243 152.099 49.8308C151.883 49.7373 151.649 49.6902 151.414 49.6925C151.18 49.6904 150.948 49.7376 150.733 49.8311C150.519 49.9246 150.326 50.0623 150.168 50.2353C150 50.4046 149.869 50.606 149.781 50.8275C149.693 51.049 149.65 51.286 149.656 51.5243C149.65 51.7671 149.692 52.0087 149.78 52.235C149.868 52.4613 150 52.6678 150.168 52.8425C150.326 53.0155 150.519 53.1531 150.733 53.2466C150.948 53.3401 151.18 53.3874 151.414 53.3853C151.649 53.3875 151.883 53.3404 152.099 53.2469C152.315 53.1535 152.51 53.0157 152.67 52.8425C153.005 52.4867 153.189 52.0138 153.182 51.5243C153.18 51.2835 153.13 51.0455 153.036 50.8242C152.941 50.6029 152.804 50.4026 152.631 50.2353H152.67Z" fill="#6F6F6E"/>
<path d="M155.529 48.6457C155.493 48.3986 155.512 48.1465 155.585 47.9076C155.657 47.6687 155.782 47.4488 155.949 47.2636C156.116 47.0784 156.321 46.9325 156.551 46.8363C156.781 46.7402 157.029 46.6961 157.278 46.7073C157.678 46.7047 158.073 46.8012 158.427 46.9883L158.137 47.7346C157.898 47.6327 157.643 47.5737 157.384 47.5602C156.756 47.5602 156.418 47.9091 156.418 48.6263V48.9462H158.05V49.7313H156.418V54.0734H155.529V49.7603H154.64V48.9753H155.529V48.6457ZM160.04 47.5893C160.04 47.72 160.002 47.8478 159.929 47.9564C159.856 48.065 159.753 48.1495 159.633 48.199C159.512 48.2486 159.379 48.2611 159.252 48.2349C159.124 48.2086 159.007 48.1449 158.916 48.0518C158.824 47.9586 158.762 47.8403 158.738 47.7118C158.714 47.5833 158.728 47.4505 158.779 47.3303C158.831 47.21 158.916 47.1078 159.026 47.0365C159.135 46.9653 159.263 46.9283 159.393 46.9302C159.561 46.9377 159.72 47.0108 159.836 47.1339C159.951 47.2569 160.014 47.4203 160.011 47.5893H160.04ZM158.93 54.1025V48.9753H159.838V54.1025H158.93Z" fill="#6F6F6E"/>
<path d="M160.755 53.1042L161.412 52.6002C161.532 52.8384 161.714 53.0398 161.938 53.1831C162.163 53.3264 162.421 53.4063 162.687 53.4143C163.228 53.4143 163.586 53.0945 163.586 52.7068C163.583 52.5643 163.537 52.426 163.454 52.3101C163.371 52.1943 163.256 52.1062 163.122 52.0574C163.013 51.9992 162.8 51.9023 162.484 51.7666C162.166 51.6309 161.963 51.534 161.857 51.4758C161.652 51.3787 161.475 51.2324 161.341 51.0499C161.207 50.8675 161.119 50.6546 161.087 50.4301C161.054 50.2057 161.078 49.9766 161.155 49.7634C161.232 49.5502 161.36 49.3593 161.528 49.2078C161.869 48.924 162.303 48.7787 162.745 48.8008C163.06 48.7944 163.371 48.8652 163.653 49.0071C163.934 49.149 164.176 49.3576 164.359 49.6149L163.779 50.1674C163.662 49.9844 163.5 49.8342 163.309 49.7308C163.118 49.6275 162.904 49.5742 162.687 49.5762C162.598 49.5639 162.507 49.5706 162.42 49.5959C162.333 49.6212 162.252 49.6644 162.183 49.7229C162.114 49.7813 162.058 49.8537 162.018 49.9352C161.979 50.0168 161.956 50.1058 161.953 50.1965C161.952 50.3287 161.993 50.4579 162.069 50.5658C162.145 50.6736 162.253 50.7547 162.378 50.7974L162.939 51.0494C163.174 51.1399 163.403 51.2468 163.624 51.3692C163.882 51.471 164.103 51.6485 164.258 51.8786C164.413 52.1087 164.495 52.3805 164.494 52.6583C164.496 52.8691 164.451 53.0777 164.362 53.2689C164.274 53.4601 164.144 53.629 163.982 53.7632C163.613 54.0756 163.141 54.2382 162.658 54.2188C162.27 54.2252 161.887 54.1248 161.552 53.9283C161.216 53.7317 160.941 53.4467 160.755 53.1042Z" fill="#6F6F6E"/>
<path d="M165.083 53.1043L165.74 52.6003C165.858 52.8378 166.038 53.0388 166.261 53.1822C166.484 53.3255 166.741 53.4057 167.005 53.4144C167.546 53.4144 167.914 53.0946 167.914 52.7069C167.908 52.5636 167.86 52.4251 167.776 52.3093C167.692 52.1936 167.575 52.1059 167.44 52.0575C167.344 51.9993 167.121 51.9024 166.803 51.7667L166.175 51.476C165.938 51.3683 165.738 51.1934 165.599 50.973C165.46 50.7526 165.388 50.4962 165.392 50.2353C165.389 50.0403 165.429 49.847 165.509 49.6694C165.589 49.4917 165.708 49.3341 165.856 49.208C166.193 48.9239 166.624 48.7784 167.063 48.8009C167.38 48.7929 167.693 48.863 167.976 49.0049C168.259 49.1469 168.503 49.3564 168.686 49.615L168.107 50.1675C167.986 49.985 167.823 49.8354 167.631 49.7322C167.438 49.629 167.223 49.5754 167.005 49.5763C166.916 49.5655 166.825 49.5733 166.739 49.5992C166.653 49.625 166.573 49.6684 166.504 49.7265C166.435 49.7847 166.379 49.8564 166.339 49.9373C166.299 50.0181 166.276 50.1064 166.271 50.1966C166.272 50.3285 166.313 50.457 166.389 50.5646C166.465 50.6722 166.572 50.7535 166.696 50.7975L167.266 51.0495C167.5 51.1439 167.729 51.2507 167.952 51.3693C168.177 51.462 168.375 51.612 168.524 51.8045C168.674 51.9969 168.771 52.2252 168.806 52.4668C168.842 52.7085 168.813 52.9551 168.725 53.1825C168.636 53.4098 168.489 53.61 168.3 53.7633C167.931 54.0758 167.459 54.2383 166.976 54.2189C166.589 54.2257 166.208 54.1253 165.874 53.9287C165.54 53.732 165.266 53.4468 165.083 53.1043Z" fill="#6F6F6E"/>
<path d="M169.691 47.5893C169.69 47.5019 169.706 47.4153 169.739 47.3345C169.772 47.2538 169.822 47.1808 169.884 47.12C169.947 47.0591 170.021 47.0118 170.102 46.9808C170.184 46.9498 170.271 46.9359 170.358 46.9399C170.517 46.9594 170.663 47.0367 170.77 47.1572C170.876 47.2777 170.935 47.4331 170.935 47.5941C170.935 47.7551 170.876 47.9105 170.77 48.031C170.663 48.1516 170.517 48.2288 170.358 48.2483C170.27 48.2524 170.182 48.2382 170.1 48.2066C170.018 48.1751 169.943 48.1268 169.881 48.0649C169.818 48.0031 169.769 47.9288 169.736 47.847C169.704 47.7651 169.688 47.6774 169.691 47.5893ZM170.792 54.1025H169.826V48.9753H170.792V54.1025Z" fill="#6F6F6E"/>
<path d="M172.657 53.4531C172.408 53.1972 172.213 52.8937 172.084 52.5607C171.954 52.2277 171.893 51.8719 171.903 51.5146C171.901 50.9782 172.058 50.4532 172.353 50.006C172.648 49.5588 173.069 49.2094 173.562 49.0019C174.055 48.7945 174.598 48.7383 175.123 48.8405C175.648 48.9428 176.131 49.1987 176.511 49.5762C176.762 49.8306 176.96 50.1336 177.091 50.4668C177.222 50.8 177.284 51.1565 177.274 51.5146C177.281 51.8723 177.216 52.2276 177.086 52.5603C176.955 52.893 176.759 53.1964 176.511 53.4531C175.991 53.9531 175.299 54.2322 174.579 54.2322C173.859 54.2322 173.167 53.9531 172.647 53.4531H172.657ZM175.816 50.2353C175.656 50.0645 175.463 49.9284 175.248 49.8354C175.034 49.7424 174.803 49.6944 174.569 49.6944C174.336 49.6944 174.105 49.7424 173.89 49.8354C173.676 49.9284 173.483 50.0645 173.323 50.2353C173.154 50.4038 173.021 50.6048 172.931 50.8263C172.842 51.0479 172.797 51.2853 172.802 51.5243C172.797 51.7677 172.841 52.0096 172.931 52.2358C173.02 52.4621 173.154 52.6683 173.323 52.8425C173.483 53.0132 173.676 53.1493 173.89 53.2423C174.105 53.3354 174.336 53.3834 174.569 53.3834C174.803 53.3834 175.034 53.3354 175.248 53.2423C175.463 53.1493 175.656 53.0132 175.816 52.8425C175.985 52.6683 176.118 52.4621 176.208 52.2358C176.297 52.0096 176.341 51.7677 176.337 51.5243C176.341 51.2853 176.297 51.0479 176.208 50.8263C176.118 50.6048 175.985 50.4038 175.816 50.2353Z" fill="#6F6F6E"/>
<path d="M178.366 54.1025V48.9752H179.264V49.7022C179.427 49.42 179.665 49.1894 179.952 49.0368C180.239 48.8842 180.563 48.8159 180.887 48.8395C181.421 48.8266 181.938 49.0251 182.327 49.392C182.528 49.6037 182.684 49.8552 182.784 50.1305C182.884 50.4058 182.925 50.6989 182.906 50.9912V54.1025H181.998V51.2529C181.998 50.2837 181.467 49.6925 180.694 49.6925C180.503 49.687 180.314 49.7232 180.139 49.7985C179.964 49.8738 179.807 49.9865 179.68 50.1286C179.41 50.4431 179.269 50.8481 179.284 51.2626V54.1025H178.366Z" fill="#6F6F6E"/>
<path d="M187.736 49.4307C187.961 49.63 188.137 49.8792 188.249 50.1584C188.362 50.4377 188.408 50.7394 188.383 51.0396V54.1411H187.524V53.453C187.326 53.7338 187.059 53.9588 186.75 54.1065C186.44 54.2541 186.098 54.3195 185.756 54.2962C185.247 54.3253 184.747 54.1511 184.365 53.8116C184.198 53.6599 184.067 53.4741 183.978 53.2667C183.89 53.0593 183.847 52.8352 183.853 52.6098C183.853 51.6405 184.616 51.0105 186.055 51.0105C186.54 51.0231 187.024 50.9972 187.504 50.933C187.437 50.1188 186.963 49.7215 186.084 49.7215C185.53 49.7237 184.988 49.8815 184.519 50.177L184.104 49.4985C184.693 49.0946 185.391 48.8815 186.104 48.8879C186.695 48.8679 187.274 49.0604 187.736 49.4307ZM187.002 52.9781C187.307 52.628 187.481 52.1826 187.495 51.7181C187.176 51.7714 186.852 51.7941 186.529 51.7859C185.34 51.7859 184.828 51.9313 184.828 52.6098C184.828 53.1428 185.263 53.4627 185.872 53.4627C186.086 53.46 186.298 53.412 186.492 53.3219C186.687 53.2317 186.861 53.1013 187.002 52.9393V52.9781Z" fill="#6F6F6E"/>
<path d="M190.644 54.1025H189.726V46.8623H190.644V54.1025Z" fill="#6F6F6E"/>
<path d="M165.421 18.5802H157.77V19.8111C157.77 20.1513 157.837 20.4881 157.968 20.8022C158.098 21.1163 158.289 21.4013 158.53 21.641C158.77 21.8807 159.056 22.0702 159.37 22.1986C159.684 22.327 160.02 22.3918 160.359 22.3892H168.01V21.1583C168.01 20.8181 167.943 20.4813 167.813 20.1672C167.682 19.8531 167.491 19.568 167.251 19.3284C167.01 19.0887 166.724 18.8992 166.41 18.7708C166.096 18.6424 165.76 18.5776 165.421 18.5802Z" fill="#005F27"/>
<path d="M176.26 39.4283C175.418 38.5785 174.755 37.5673 174.31 36.455C173.865 35.3428 173.648 34.1521 173.671 32.9539C173.638 31.7529 173.851 30.558 174.296 29.4427C174.741 28.3275 175.41 27.3157 176.26 26.4697C178.087 24.7624 180.491 23.8132 182.988 23.8132C185.485 23.8132 187.889 24.7624 189.717 26.4697C190.569 27.3153 191.241 28.3263 191.691 29.4412C192.141 30.5561 192.36 31.7513 192.334 32.9539C192.356 34.1602 192.135 35.3585 191.685 36.4774C191.236 37.5964 190.566 38.6131 189.717 39.4671C187.88 41.1555 185.479 42.0921 182.988 42.0921C180.497 42.0921 178.097 41.1555 176.26 39.4671V39.4283ZM186.094 29.736C185.689 29.3157 185.205 28.9814 184.669 28.7531C184.133 28.5247 183.556 28.4071 182.974 28.4071C182.391 28.4071 181.815 28.5247 181.279 28.7531C180.743 28.9814 180.258 29.3157 179.854 29.736C179.44 30.1493 179.115 30.6424 178.898 31.1856C178.68 31.7287 178.575 32.3105 178.588 32.8957C178.571 33.4959 178.674 34.0936 178.891 34.653C179.108 35.2125 179.436 35.7224 179.854 36.1523C180.263 36.5644 180.749 36.8913 181.284 37.1144C181.82 37.3374 182.394 37.4523 182.974 37.4523C183.554 37.4523 184.128 37.3374 184.663 37.1144C185.198 36.8913 185.685 36.5644 186.094 36.1523C186.522 35.7235 186.859 35.2121 187.085 34.6491C187.311 34.0861 187.42 33.4831 187.408 32.8763C187.414 32.2878 187.3 31.7043 187.074 31.1611C186.849 30.6179 186.515 30.1265 186.094 29.7166V29.736Z" fill="#005F27"/>
<path d="M131.987 24.2306C131.277 24.1971 130.581 24.4376 130.042 24.9026C129.504 25.3676 129.162 26.0219 129.089 26.7313V34.1556C129.089 34.9936 128.757 35.7973 128.167 36.3898C127.576 36.9824 126.775 37.3153 125.94 37.3153C125.105 37.3153 124.304 36.9824 123.713 36.3898C123.123 35.7973 122.791 34.9936 122.791 34.1556V24.2306H117.854V34.1459C117.854 39.1083 120.946 42.016 125.95 42.016C130.954 42.016 134.055 39.1762 134.055 34.1459V24.2306H131.987Z" fill="#005F27"/>
<path d="M72.2679 26.4599C71.5084 25.6007 70.5713 24.918 69.5219 24.4593C68.4724 24.0006 67.336 23.7771 66.1916 23.8042C65.1953 23.7892 64.2077 23.9931 63.2982 24.4017C62.3887 24.8102 61.5793 25.4135 60.9268 26.1692V24.2307H56.0291V45.7864C56.0291 46.5576 56.3344 47.2971 56.8779 47.8424C57.4214 48.3877 58.1586 48.6941 58.9272 48.6941H60.9558V39.7772C61.6178 40.4924 62.4231 41.0591 63.3188 41.4399C64.2145 41.8208 65.1804 42.0072 66.153 41.987C67.2931 42.0138 68.4251 41.79 69.4698 41.3312C70.5145 40.8724 71.4465 40.1898 72.2003 39.3313C73.817 37.5678 74.6865 35.2424 74.625 32.8472C74.6959 30.4917 73.8506 28.201 72.2679 26.4599ZM65.2739 37.4607C64.6895 37.4651 64.1103 37.3504 63.5713 37.1236C63.0323 36.8968 62.5449 36.5626 62.1384 36.1412C61.732 35.7199 61.415 35.2201 61.2068 34.6722C60.9985 34.1243 60.9033 33.5397 60.9268 32.9538C60.8969 31.7666 61.3382 30.6161 62.1537 29.7553C62.5622 29.335 63.0505 29.001 63.5897 28.773C64.1289 28.545 64.7081 28.4275 65.2932 28.4275C65.8784 28.4275 66.4576 28.545 66.9968 28.773C67.536 29.001 68.0242 29.335 68.4328 29.7553C69.2483 30.6161 69.6896 31.7666 69.6596 32.9538C69.6792 33.5419 69.58 34.128 69.3679 34.6766C69.1557 35.2253 68.8352 35.7252 68.4254 36.1463C68.0157 36.5674 67.5252 36.9009 66.9836 37.1268C66.442 37.3527 65.8604 37.4663 65.2739 37.4607Z" fill="#005F27"/>
<path d="M149.733 37.4609H143.937L151.974 27.7686V24.2793H137.484V28.3889H145.338L137.078 38.1296V41.5801H152.264V40.3686C152.29 39.6519 152.042 38.9523 151.572 38.4122C151.102 37.8721 150.444 37.5319 149.733 37.4609Z" fill="#005F27"/>
<path d="M92.6317 25.6361C91.361 24.4187 89.6647 23.7504 87.9079 23.7752C86.8253 23.7376 85.7519 23.9865 84.7956 24.4969C83.8392 25.0073 83.0336 25.7612 82.4595 26.6828V24.2307H77.6294V41.5799H82.5755V32.411C82.5755 29.9685 84.0535 28.3305 86.2946 28.3305C88.3426 28.3305 89.666 29.7456 89.666 32.2753V39.1568C89.7441 39.8579 90.0893 40.5015 90.6294 40.9531C91.1695 41.4047 91.8627 41.6293 92.5641 41.5799H94.6314V31.0153C94.6906 30.0283 94.5433 29.0398 94.1989 28.1134C93.8545 27.1869 93.3207 26.3431 92.6317 25.6361Z" fill="#005F27"/>
<path d="M107.006 37.8484C104.485 37.8484 102.9 36.7726 102.311 34.5918H112.937C113.532 34.5505 114.09 34.2865 114.499 33.852C114.909 33.4175 115.141 32.8444 115.15 32.2463C115.181 31.1191 114.98 29.9975 114.56 28.9518C114.139 27.9061 113.508 26.9588 112.706 26.1692C111.412 24.9193 109.779 24.0822 108.012 23.7635C106.245 23.4449 104.423 23.659 102.777 24.3789C101.131 25.0988 99.7348 26.2922 98.7646 27.8081C97.7945 29.324 97.2941 31.0944 97.3266 32.8957C97.2644 35.2823 98.1346 37.5989 99.7513 39.3507C101.393 41.0857 103.722 41.9774 106.784 41.9774C109.502 42.0478 112.165 41.2014 114.348 39.5737L112.416 36.191C110.823 37.2848 108.936 37.8632 107.006 37.8484ZM106.436 27.8169C107.369 27.7869 108.283 28.0928 109.011 28.6794C109.739 29.266 110.234 30.0946 110.406 31.0154H102.272C102.494 30.0832 103.029 29.2562 103.788 28.6736C104.546 28.0911 105.481 27.7885 106.436 27.8169Z" fill="#005F27"/>
<path d="M169.218 41.5702C169.687 41.4968 170.112 41.2527 170.414 40.8844C170.715 40.5161 170.87 40.0495 170.85 39.5736V31.3254C170.85 28.5437 169.884 26.4793 168.3 25.3453C166.708 24.2548 164.807 23.7107 162.881 23.7945C160.321 23.8148 157.811 24.5028 155.597 25.7911L157.239 29.4548C158.902 28.5784 160.751 28.1163 162.629 28.1076C164.803 28.1076 166.03 29.0187 166.252 30.8214L164.146 30.9184H162.726C157.964 31.0153 154.911 32.8568 154.911 36.4527C154.89 37.1842 155.021 37.912 155.293 38.5908C155.566 39.2695 155.975 39.8845 156.495 40.3974C157.744 41.5008 159.374 42.0681 161.035 41.9773C162.041 42.037 163.048 41.8665 163.978 41.4786C164.909 41.0907 165.739 40.4956 166.407 39.7384V41.5411L169.218 41.5702ZM161.963 38.0907C160.485 38.0907 159.635 37.3928 159.635 36.2879C159.635 34.8922 160.862 34.456 163.296 34.4173C164.175 34.4173 165.151 34.4173 166.194 34.3204C166.09 35.3672 165.597 36.3364 164.813 37.035C164.029 37.7336 163.011 38.1105 161.963 38.0907Z" fill="#005F27"/>
</svg>
